<?xml version="1.0" encoding="UTF-8"?>
<svg id="Layer_2" xmlns="http://www.w3.org/2000/svg" version="1.1" viewBox="0 0 1280 1280">
  <!-- Generator: Adobe Illustrator 30.2.1, SVG Export Plug-In . SVG Version: 2.1.1 Build 1)  -->
  <defs>
    <style>
      .st0 {
        fill: #92918f;
      }

      .st1 {
        isolation: isolate;
      }
    </style>
  </defs>
  <g class="st1">
    <g>
      <path class="st0" d="M204.7,729.8l-37.8-109.5h-39.3s1.1.5,2.5,1.6c2.4,1.9,4.2,4.5,5.2,7.5l47,134.9.2.7h43.3l50.4-144.6h-33.9l-37.8,109.5Z"/>
      <rect class="st0" x="286.4" y="620.3" width="32.7" height="144.6"/>
      <path class="st0" d="M407.1,677.7l-19.6-3.2c-11.6-1.9-17.5-6.5-17.5-13.8s7.9-13.3,21.6-13.3,21.8,4.9,25.1,15.9l.2.7h33.5l-.2-1.1c-4.2-28.8-24.2-44-57.9-44s-56.1,16.1-56.1,43.1,15.4,38.7,42.4,42.9l20.5,3c13,2.1,19.7,7.3,19.7,15.6s-8.1,14.3-22.4,14.3-27.2-6.5-30.4-17.8l-.2-.7h-33.5l.2,1.2c4.6,28.8,28.2,45.9,63.2,45.9s56.8-17.1,56.8-44.7-16.1-39.2-45.4-43.9Z"/>
      <path class="st0" d="M549.6,620.9l-.2-.7h-43.5l-50.4,144.6h33.7l10.5-30.3h56l10.5,30.3h33.7l-50.2-143.9ZM509.4,705.8l18.2-52.6,18.2,52.6h-36.4Z"/>
      <rect class="st0" x="704.7" y="685" width="51.9" height="28"/>
      <polygon class="st0" points="763.9 620.3 763.9 648.8 698.7 648.8 698.7 764.9 666 764.9 666 620.3 763.9 620.3"/>
      <path class="st0" d="M859.8,620.9l-.2-.7h-43.5l-50.4,144.6h33.7l10.5-30.3h56l10.5,30.3h33.7l-50.2-143.9ZM819.6,705.8l18.2-52.6,18.2,52.6h-36.4Z"/>
      <path class="st0" d="M985.7,677.7l-19.6-3.2c-11.6-1.9-17.5-6.5-17.5-13.8s7.9-13.3,21.6-13.3,21.8,4.9,25.1,15.9l.2.7h33.5l-.2-1.1c-4.2-28.8-24.2-44-57.9-44s-56.1,16.1-56.1,43.1,15.4,38.7,42.4,42.9l20.5,3c13,2.1,19.7,7.3,19.7,15.6s-8.1,14.3-22.4,14.3-27.2-6.5-30.4-17.8l-.2-.7h-33.5l.2,1.2c4.6,28.8,28.2,45.9,63.2,45.9s56.8-17.1,56.8-44.7-16.1-39.2-45.4-43.9Z"/>
      <rect class="st0" x="1077.8" y="654.9" width="32.7" height="110"/>
      <rect class="st0" x="1035.9" y="620.3" width="116.5" height="28.6"/>
    </g>
    <path class="st0" d="M590.4,604.3s53.8,189.1,188.3,308.4,193.3,58.8,202.6,24.4c0,0-13.3,103.4-158.8,26.9s-225.3-293.3-232.1-359.7Z"/>
    <path class="st0" d="M582.5,546l-30-121.9,28,3.4,4.8,5v-3.6l94.4,15.7-17.6-34.2-70-18.5v-3.3c0-3.2-2.4-5.9-5.6-6.3l-14.3-1.6v10.1l-35.3-7.3c-19.1-61.8-38.3-86.2-47-94.7-2.1-2-5.6-.9-6.2,1.9-7.9,43.7,21.3,105.1,21.3,105.1l-27.5,26.6-5.9-7.6-9.1,8.3c-2.1,1.9-2.7,4.9-1.5,7.4l2.5,5.3-44.5,45.9,3.6,37.1,64.2-57.6,5,3.6v-8.7l23.5-20.5,49.3,116.3-23.3,24.7,1.1,25.2,34.7-28.9,4.7,5c1.3,1.4,3.7.6,3.9-1.3l.6-6.5,42,6.4-12.9-21-33.1-9.8Z"/>
  </g>
</svg>